<svg width="32" height="32" viewBox="0 0 32 32" fill="none" xmlns="http://www.w3.org/2000/svg">
<path d="M20.9337 6.20053H11.067C10.1299 6.20053 9.2312 6.57281 8.56858 7.23544C7.90595 7.89808 7.53371 8.79672 7.53371 9.73381V23.8672C7.53217 24.2025 7.61882 24.5324 7.78496 24.8239C7.95112 25.1152 8.19091 25.3577 8.48037 25.5272C8.77122 25.6951 9.10116 25.7835 9.43703 25.7835C9.77288 25.7835 10.1028 25.6951 10.3937 25.5272L16.0004 22.4672L21.607 25.5272C21.9012 25.6879 22.2321 25.7692 22.5673 25.7635C22.9024 25.7576 23.2302 25.6648 23.5186 25.494C23.8072 25.3232 24.0462 25.0804 24.2125 24.7893C24.3788 24.4984 24.4664 24.1691 24.467 23.8339V9.70053C24.4582 8.76922 24.0821 7.879 23.4204 7.22356C22.7588 6.56813 21.865 6.20049 20.9337 6.20053Z" fill="white"/>
</svg>
