<svg width="32" height="32" viewBox="0 0 32 32" fill="none" xmlns="http://www.w3.org/2000/svg">
<g clip-path="url(#clip0_136_897)">
<path fill-rule="evenodd" clip-rule="evenodd" d="M20.2515 8.38523L12.8515 15.7852C12.8289 15.8078 12.8206 15.8238 12.818 15.8299C12.8173 15.8314 12.8169 15.8325 12.8166 15.8334C12.8169 15.8342 12.8173 15.8353 12.818 15.8368C12.8206 15.8429 12.8289 15.8589 12.8515 15.8815L12.8538 15.8838L20.2538 23.3505L19.2121 24.3829L11.8144 16.9186C11.814 16.9181 11.8135 16.9177 11.8131 16.9173C11.523 16.6266 11.3496 16.2453 11.3496 15.8334C11.3496 15.4208 11.5235 15.039 11.8144 14.7481L19.2144 7.34814L20.2515 8.38523Z" fill="#343A40"/>
</g>
<defs>
<clipPath id="clip0_136_897">
<rect width="8.93333" height="17.0667" fill="white" transform="translate(11.334 7.33337)"/>
</clipPath>
</defs>
</svg>
