<svg width="32" height="32" viewBox="0 0 32 32" fill="none" xmlns="http://www.w3.org/2000/svg">
<g clip-path="url(#clip0_169_1041)">
<path fill-rule="evenodd" clip-rule="evenodd" d="M11.1333 8.13366C10.205 8.13366 9.46667 8.872 9.46667 9.80033V23.9337C9.46667 23.975 9.47609 23.9921 9.47848 23.9961C9.48178 24.0018 9.48707 24.0078 9.49717 24.0136C9.51893 24.0261 9.55654 24.0328 9.5987 24.0142L15.7165 20.6893C15.9349 20.5707 16.1985 20.5707 16.4168 20.6893L22.5327 24.0132C22.5491 24.0195 22.5793 24.0228 22.6194 23.9985C22.6398 23.9861 22.6526 23.9716 22.6592 23.9608C22.6644 23.952 22.6667 23.9445 22.6667 23.9337V9.80033C22.6667 8.872 21.9283 8.13366 21 8.13366H11.1333ZM8 9.80033C8 8.06198 9.39499 6.66699 11.1333 6.66699H21C22.7383 6.66699 24.1333 8.06198 24.1333 9.80033V23.9337C24.1333 25.0935 22.8798 25.8268 21.872 25.3229C21.8646 25.3192 21.8572 25.3153 21.8498 25.3113L16.0667 22.1683L10.2835 25.3113C10.2762 25.3153 10.2688 25.3192 10.2613 25.3229C9.29823 25.8044 8 25.2088 8 23.9337V9.80033Z" fill="#212529"/>
</g>
<defs>
<clipPath id="clip0_169_1041">
<rect width="16.1333" height="18.8" fill="white" transform="translate(8 6.66699)"/>
</clipPath>
</defs>
</svg>
