<svg width="33" height="32" viewBox="0 0 33 32" fill="none" xmlns="http://www.w3.org/2000/svg">
<g clip-path="url(#clip0_620_1521)">
<path fill-rule="evenodd" clip-rule="evenodd" d="M11.6333 8.13366C10.705 8.13366 9.96667 8.872 9.96667 9.80033V23.9337C9.96667 23.975 9.97609 23.9921 9.97848 23.9961C9.98178 24.0018 9.98707 24.0078 9.99717 24.0136C10.0189 24.0261 10.0565 24.0328 10.0987 24.0142L16.2165 20.6893C16.4349 20.5707 16.6985 20.5707 16.9168 20.6893L23.0327 24.0132C23.0491 24.0195 23.0793 24.0228 23.1194 23.9985C23.1398 23.9861 23.1526 23.9716 23.1592 23.9608C23.1644 23.952 23.1667 23.9445 23.1667 23.9337V9.80033C23.1667 8.872 22.4283 8.13366 21.5 8.13366H11.6333ZM8.5 9.80033C8.5 8.06198 9.89499 6.66699 11.6333 6.66699H21.5C23.2383 6.66699 24.6333 8.06198 24.6333 9.80033V23.9337C24.6333 25.0935 23.3798 25.8268 22.372 25.3229C22.3646 25.3192 22.3572 25.3153 22.3498 25.3113L16.5667 22.1683L10.7835 25.3113C10.7762 25.3153 10.7688 25.3192 10.7613 25.3229C9.79823 25.8044 8.5 25.2088 8.5 23.9337V9.80033Z" fill="white"/>
</g>
<defs>
<clipPath id="clip0_620_1521">
<rect width="16.1333" height="18.8" fill="white" transform="translate(8.5 6.66699)"/>
</clipPath>
</defs>
</svg>
