<svg width="32" height="32" viewBox="0 0 32 32" fill="none" xmlns="http://www.w3.org/2000/svg">
<path d="M9.06654 17.5335C9.91337 17.5335 10.5999 16.847 10.5999 16.0001C10.5999 15.1533 9.91337 14.4668 9.06654 14.4668C8.2197 14.4668 7.5332 15.1533 7.5332 16.0001C7.5332 16.847 8.2197 17.5335 9.06654 17.5335Z" fill="#343A40"/>
<path d="M22.9337 17.5335C23.7806 17.5335 24.4671 16.847 24.4671 16.0001C24.4671 15.1533 23.7806 14.4668 22.9337 14.4668C22.0869 14.4668 21.4004 15.1533 21.4004 16.0001C21.4004 16.847 22.0869 17.5335 22.9337 17.5335Z" fill="#343A40"/>
<path d="M16.0001 17.5335C16.847 17.5335 17.5335 16.847 17.5335 16.0001C17.5335 15.1533 16.847 14.4668 16.0001 14.4668C15.1533 14.4668 14.4668 15.1533 14.4668 16.0001C14.4668 16.847 15.1533 17.5335 16.0001 17.5335Z" fill="#343A40"/>
</svg>
