<svg width="32" height="32" viewBox="0 0 32 32" fill="none" xmlns="http://www.w3.org/2000/svg">
<g clip-path="url(#clip0_620_1516)">
<path fill-rule="evenodd" clip-rule="evenodd" d="M24.6668 24.7999H7.3335V23.3332H24.6668V24.7999Z" fill="white"/>
<path fill-rule="evenodd" clip-rule="evenodd" d="M18.5144 7.8102L20.7777 10.0069L20.7855 10.0146C21.0899 10.319 21.2003 10.7252 21.2003 11.0748C21.2003 11.4297 21.0887 11.8131 20.8396 12.1246C20.822 12.1465 20.8032 12.1674 20.7833 12.1872L12.9166 19.9872C12.8145 20.0884 12.685 20.1574 12.5441 20.1856L9.55827 20.7827C9.00584 20.9127 8.49258 20.6959 8.16505 20.3683C7.83752 20.0408 7.62067 19.5275 7.75067 18.9751L8.34783 15.9893C8.37623 15.8473 8.44601 15.717 8.54838 15.6146L16.3484 7.81458C16.6393 7.5237 17.021 7.34979 17.4336 7.34979C17.8441 7.34979 18.2241 7.52196 18.5144 7.8102ZM17.4302 8.81814C17.4241 8.82079 17.408 8.82911 17.3855 8.85167L9.74247 16.4947L9.18602 19.2769C9.1844 19.285 9.18265 19.2931 9.18076 19.3011C9.18354 19.3077 9.18995 19.3191 9.20214 19.3312C9.21433 19.3434 9.22571 19.3499 9.23226 19.3526C9.24029 19.3507 9.24835 19.349 9.25644 19.3474L12.0404 18.7906L19.7066 11.1893C19.7113 11.1806 19.7161 11.1697 19.7205 11.1565C19.7291 11.1306 19.7336 11.102 19.7336 11.0748C19.7336 11.0563 19.7315 11.0424 19.7295 11.0335L17.4895 8.85935L17.4817 8.85167C17.4592 8.82911 17.4431 8.82079 17.437 8.81814C17.4356 8.81751 17.4344 8.81708 17.4336 8.81681C17.4328 8.81708 17.4316 8.81751 17.4302 8.81814Z" fill="white"/>
</g>
<defs>
<clipPath id="clip0_620_1516">
<rect width="17.3333" height="17.4667" fill="white" transform="translate(7.3335 7.33301)"/>
</clipPath>
</defs>
</svg>
