<svg width="33" height="32" viewBox="0 0 33 32" fill="none" xmlns="http://www.w3.org/2000/svg">
<g clip-path="url(#clip0_620_1510)">
<path fill-rule="evenodd" clip-rule="evenodd" d="M14.8993 8.13341C11.4384 8.13341 8.63268 10.9391 8.63268 14.4001C8.63268 17.8611 11.4384 20.6667 14.8993 20.6667C18.3603 20.6667 21.166 17.8611 21.166 14.4001C21.166 10.9391 18.3603 8.13341 14.8993 8.13341ZM7.16602 14.4001C7.16602 10.1291 10.6283 6.66675 14.8993 6.66675C19.1704 6.66675 22.6327 10.1291 22.6327 14.4001C22.6327 18.6711 19.1704 22.1334 14.8993 22.1334C10.6283 22.1334 7.16602 18.6711 7.16602 14.4001Z" fill="white"/>
<path fill-rule="evenodd" clip-rule="evenodd" d="M24.7137 25.252L19.3804 19.9186L20.4175 18.8815L25.7508 24.2149L24.7137 25.252Z" fill="white"/>
</g>
<defs>
<clipPath id="clip0_620_1510">
<rect width="18.6" height="18.6" fill="white" transform="translate(7.1665 6.66666)"/>
</clipPath>
</defs>
</svg>
