<svg width="32" height="32" viewBox="0 0 32 32" fill="none" xmlns="http://www.w3.org/2000/svg">
<g clip-path="url(#clip0_620_1502)">
<path fill-rule="evenodd" clip-rule="evenodd" d="M10.4668 7.46667C9.5385 7.46667 8.80016 8.20501 8.80016 9.13333V23C8.80016 23.9283 9.53851 24.6667 10.4668 24.6667H21.6668C22.5952 24.6667 23.3335 23.9283 23.3335 23V12.3704L18.4297 7.46667H10.4668ZM7.3335 9.13333C7.3335 7.39499 8.72849 6 10.4668 6H18.7335C18.928 6 19.1145 6.07726 19.252 6.21479L24.5854 11.5481C24.7229 11.6856 24.8002 11.8722 24.8002 12.0667V23C24.8002 24.7383 23.4052 26.1333 21.6668 26.1333H10.4668C8.72849 26.1333 7.3335 24.7383 7.3335 23V9.13333Z" fill="white"/>
<path fill-rule="evenodd" clip-rule="evenodd" d="M18.4527 6.05581C18.7267 5.94231 19.0421 6.00505 19.2519 6.21478L24.5852 11.5481C24.7949 11.7578 24.8577 12.0733 24.7442 12.3473C24.6307 12.6213 24.3633 12.8 24.0667 12.8H19.5333C18.6617 12.8 18 12.1383 18 11.2667V6.73332C18 6.43672 18.1787 6.16932 18.4527 6.05581ZM19.4667 8.50375V11.2667C19.4667 11.2955 19.4717 11.3114 19.4741 11.3174C19.4754 11.3207 19.4764 11.3224 19.4769 11.3231C19.4776 11.3236 19.4793 11.3246 19.4825 11.3259C19.4886 11.3283 19.5045 11.3333 19.5333 11.3333H22.2962L19.4667 8.50375Z" fill="white"/>
</g>
<defs>
<clipPath id="clip0_620_1502">
<rect width="17.4667" height="20.1333" fill="white" transform="translate(7.3335 6)"/>
</clipPath>
</defs>
</svg>
