<svg width="32" height="32" viewBox="0 0 32 32" fill="none" xmlns="http://www.w3.org/2000/svg">
<path fill-rule="evenodd" clip-rule="evenodd" d="M16.0668 8.13335C14.2627 8.13335 12.8002 9.59589 12.8002 11.4C12.8002 13.2042 14.2627 14.6667 16.0668 14.6667C17.871 14.6667 19.3335 13.2042 19.3335 11.4C19.3335 9.59589 17.871 8.13335 16.0668 8.13335ZM11.3335 11.4C11.3335 8.78587 13.4527 6.66669 16.0668 6.66669C18.681 6.66669 20.8002 8.78587 20.8002 11.4C20.8002 14.0142 18.681 16.1334 16.0668 16.1334C13.4527 16.1334 11.3335 14.0142 11.3335 11.4Z" fill="white"/>
<path fill-rule="evenodd" clip-rule="evenodd" d="M7.3335 21.1334C7.3335 19.395 8.72849 18 10.4668 18H21.6668C23.4052 18 24.8002 19.395 24.8002 21.1334V24.7334H23.3335V21.1334C23.3335 20.205 22.5952 19.4667 21.6668 19.4667H10.4668C9.53851 19.4667 8.80016 20.205 8.80016 21.1334V24.7334H7.3335V21.1334Z" fill="white"/>
</svg>
