<svg width="111" height="30" viewBox="0 0 111 30" fill="none" xmlns="http://www.w3.org/2000/svg">
<path d="M92.0187 28.632L97.5099 8.04956H103.347L102.233 12.1968C103.283 10.6608 104.422 9.49596 105.651 8.70236C106.905 7.88316 108.377 7.53756 110.067 7.66556L108.415 13.7712H108.108C106.163 13.7712 104.473 14.36 103.039 15.5376C101.606 16.7152 100.531 18.648 99.8139 21.336L97.8555 28.632H92.0187Z" fill="black"/>
<path d="M76.6427 20.376C76.7451 21.6048 77.1675 22.5904 77.9099 23.3328C78.6523 24.0496 79.7915 24.408 81.3275 24.408C82.0955 24.408 82.8379 24.28 83.5547 24.024C84.2715 23.768 85.0523 23.3456 85.8971 22.7568L88.5851 26.3664C87.6635 27.1344 86.5499 27.7872 85.2443 28.3248C83.9643 28.8368 82.4411 29.0928 80.6747 29.0928C79.1899 29.0928 77.8587 28.888 76.6811 28.4784C75.5035 28.0432 74.5051 27.4416 73.6859 26.6736C72.8667 25.88 72.2395 24.92 71.8043 23.7936C71.3691 22.6672 71.1515 21.3872 71.1515 19.9536C71.1515 18.4688 71.4331 16.9968 71.9963 15.5376C72.5851 14.0528 73.4171 12.7344 74.4923 11.5824C75.5675 10.4048 76.8475 9.45759 78.3323 8.74079C79.8427 8.02399 81.5195 7.66559 83.3627 7.66559C84.6939 7.66559 85.8843 7.87039 86.9339 8.27999C87.9835 8.68959 88.8667 9.25279 89.5835 9.96959C90.3003 10.6864 90.8379 11.5312 91.1963 12.504C91.5803 13.4768 91.7723 14.5392 91.7723 15.6912C91.7723 16.4336 91.6827 17.2016 91.5035 17.9952C91.3243 18.7888 91.0683 19.5824 90.7355 20.376H76.6427ZM77.1419 16.728H86.0891C86.2171 16.2928 86.2811 15.8448 86.2811 15.384C86.2811 14.5392 86.0123 13.8224 85.4747 13.2336C84.9627 12.6448 84.1051 12.3504 82.9019 12.3504C81.5707 12.3504 80.3931 12.76 79.3691 13.5792C78.3707 14.3728 77.6283 15.4224 77.1419 16.728Z" fill="black"/>
<path d="M49.2576 28.9776C47.4912 28.9776 46.1728 28.5936 45.3024 27.8256C44.432 27.0576 43.9968 26.0976 43.9968 24.9456C43.9968 24.5104 44.0224 24.088 44.0736 23.6784C44.1504 23.2688 44.2528 22.8336 44.3808 22.3728L46.8768 13.0416H44.4192L45.7632 8.04959H48.2208L49.6416 2.78879H55.4784L54.0576 8.04959H58.896L57.552 13.0416H52.7136L50.4096 21.6816C50.3584 21.8352 50.32 22.0016 50.2944 22.1808C50.2688 22.3344 50.256 22.4752 50.256 22.6032C50.256 23.4224 50.7808 23.832 51.8304 23.832C52.2912 23.832 52.7776 23.7808 53.2896 23.6784C53.8272 23.5504 54.3392 23.384 54.8256 23.1792L53.4816 28.1328C52.2784 28.696 50.8704 28.9776 49.2576 28.9776Z" fill="black"/>
<path d="M31.7855 29.0928C31.0175 29.0928 30.2111 29.016 29.3663 28.8624C28.5215 28.7088 27.6895 28.4784 26.8703 28.1712C26.0767 27.864 25.3087 27.48 24.5663 27.0192C23.8239 26.5584 23.1455 26.008 22.5311 25.368L25.9103 21.8736C26.9855 22.9488 28.0735 23.6784 29.1743 24.0624C30.2751 24.4464 31.2863 24.6384 32.2079 24.6384C32.9759 24.6384 33.5775 24.4848 34.0127 24.1776C34.4479 23.8704 34.6655 23.4224 34.6655 22.8336C34.6655 22.4496 34.4479 22.1168 34.0127 21.8352C33.5775 21.528 33.0015 21.2208 32.2847 20.9136C31.4655 20.5808 30.6975 20.2352 29.9807 19.8768C29.2639 19.4928 28.6239 19.0704 28.0607 18.6096C27.5231 18.1488 27.0879 17.624 26.7551 17.0352C26.4479 16.4208 26.2943 15.704 26.2943 14.8848C26.2943 13.8608 26.4863 12.9136 26.8703 12.0432C27.2543 11.1472 27.7919 10.3792 28.4831 9.73919C29.1999 9.09919 30.0703 8.59999 31.0943 8.24159C32.1183 7.85759 33.2703 7.66559 34.5503 7.66559C35.3951 7.66559 36.2015 7.75519 36.9695 7.93439C37.7631 8.08799 38.5055 8.30559 39.1967 8.58719C39.9135 8.86879 40.5535 9.18879 41.1167 9.54719C41.7055 9.87999 42.2175 10.2384 42.6527 10.6224L39.5039 14.3088C38.5055 13.5152 37.5711 12.952 36.7007 12.6192C35.8303 12.2864 34.9727 12.12 34.1279 12.12C33.4111 12.12 32.8479 12.2736 32.4383 12.5808C32.0543 12.888 31.8623 13.3104 31.8623 13.848C31.8623 14.2576 32.0927 14.6288 32.5535 14.9616C33.0399 15.2688 33.7183 15.6144 34.5887 15.9984C35.2543 16.3056 35.9199 16.6256 36.5855 16.9584C37.2767 17.2912 37.8911 17.688 38.4287 18.1488C38.9663 18.6096 39.4015 19.1472 39.7343 19.7616C40.0671 20.3504 40.2335 21.0416 40.2335 21.8352C40.2335 22.9616 40.0159 23.9728 39.5807 24.8688C39.1711 25.7648 38.5951 26.5328 37.8527 27.1728C37.1103 27.7872 36.2143 28.2608 35.1647 28.5936C34.1407 28.9264 33.0143 29.0928 31.7855 29.0928Z" fill="black"/>
<path d="M18.7387 5.78401L20.1595 0.600006H26.3035L24.8827 5.78401H18.7387ZM12.7483 28.632L18.2779 8.04961H24.1147L18.5851 28.632H12.7483Z" fill="black"/>
<path d="M0.399902 28.632L5.9679 7.81917L1.0911 8.93277L1.0143 3.90237L9.4623 1.55997H13.4943L6.2367 28.632H0.399902Z" fill="black"/>
<path d="M59.9562 28.6639L65.4858 8.08154H70.5226L64.993 28.6639H59.9562Z" fill="#5BFF7F"/>
<path d="M66.1723 0.631989L64.7515 5.81599H70.8955L72.3163 0.631989H66.1723Z" fill="#5BFF7F"/>
<g clip-path="url(#clip0_382_765)">
<path d="M57.5514 28.6639L63.081 8.08154H68.9178L63.3882 28.6639H57.5514Z" fill="#5BFF7F"/>
</g>
<defs>
<clipPath id="clip0_382_765">
<rect width="8" height="5.6" fill="white" transform="translate(58.3514 7.86395)"/>
</clipPath>
</defs>
</svg>
