<svg width="358" height="358" viewBox="0 0 358 358" fill="none" xmlns="http://www.w3.org/2000/svg">
<circle cx="217.259" cy="121.907" r="10.4883" fill="black"/>
<circle cx="331.488" cy="234.488" r="10.4883" fill="black"/>
<circle cx="173.058" cy="133.144" r="5.24416" fill="black"/>
<circle cx="309.244" cy="279.244" r="5.24416" fill="#5BFF7F"/>
<circle cx="153.579" cy="314.443" r="5.24416" fill="black"/>
<path d="M308.119 208.441C301.526 215.034 288.141 205.694 282.647 200.2C282.147 199.202 280.399 196.455 283.396 193.458C285.867 190.987 290.139 193.208 292.386 194.956C293.385 195.705 295.982 197.503 298.379 198.702C301.376 200.2 303.624 199.451 302.125 194.956C300.45 189.931 296.881 183.719 290.139 177.725C286.971 174.91 282.573 169.559 286.393 165.739C288.64 163.491 294.883 165.239 297.63 167.237C303.374 170.733 315.61 178.175 318.607 179.973C322.353 182.22 330.594 184.468 332.841 182.97C334.639 181.771 332.591 176.976 331.343 174.729C327.597 168.735 319.506 155.55 317.109 150.755C314.112 144.762 313.738 142.263 316.359 138.769C318.607 135.772 323.601 137.021 326.099 138.02L340.333 145.511C339.833 144.512 338.684 141.166 341.082 138.769C343.479 136.371 347.325 137.52 348.573 138.02C353.068 140.767 361.01 148.358 356.814 156.749C352.619 165.139 340.083 160.245 334.339 156.749C340.333 165.239 349.622 184.018 338.834 191.21C328.046 198.402 314.861 192.709 309.617 188.963C311.615 192.709 314.711 201.848 308.119 208.441Z" fill="#5BFF7F"/>
<path d="M58.0141 143.066C63.1259 149.658 76.0547 142.87 81.5476 138.611C82.1031 137.78 83.9629 135.538 81.6394 132.542C79.7233 130.071 75.6827 131.563 73.4917 132.863C72.521 133.416 70.014 134.72 67.7516 135.515C64.9236 136.509 63.0128 135.591 64.8471 131.77C66.898 127.497 70.763 122.384 77.4203 117.821C80.5477 115.677 85.0522 111.421 82.0903 107.602C80.3476 105.355 74.6101 106.206 71.9477 107.671C66.4573 110.129 54.7611 115.361 51.8995 116.621C48.3224 118.195 40.7556 119.265 38.9289 117.683C37.4675 116.418 39.8231 112.392 41.1836 110.537C45.181 105.638 53.8423 94.8423 56.5083 90.8555C59.8407 85.872 60.4527 83.6962 58.5184 80.3002C56.8598 77.3881 52.2866 77.9359 49.958 78.5423L36.483 83.5944C37.0384 82.7639 38.4335 79.9226 36.5747 77.5257C34.7158 75.1288 31.1734 75.7169 30.0091 76.0201C25.7111 77.9538 17.8105 83.8009 20.5927 91.7193C23.3748 99.6377 35.0511 96.7001 40.5415 94.2416C34.269 101.105 23.916 116.731 32.6843 124.325C41.4527 131.92 53.795 128.346 58.8701 125.609C56.6765 128.71 52.9023 136.475 58.0141 143.066Z" fill="#5BFF7F"/>
<path d="M122.864 279.231C136.649 263.049 133.103 241.523 129.607 232.783L143.092 223.044C144.09 224.043 146.238 232.483 146.837 258.255C147.437 284.026 124.113 304.453 112.376 311.446L103.386 302.456C104.135 301.457 109.079 295.413 122.864 279.231Z" fill="#5BFF7F"/>
<path d="M214.262 259.004L203.773 251.512C197.53 254.009 184.894 263.649 184.295 282.228C183.696 300.807 197.031 314.442 203.773 318.937L211.265 309.947C207.269 305.202 199.278 293.016 199.278 282.228C199.278 271.44 209.267 262.25 214.262 259.004Z" fill="black"/>
<circle cx="91.3982" cy="187.833" r="8.98999" fill="black"/>
<path fill-rule="evenodd" clip-rule="evenodd" d="M125.97 91.9399C140.865 91.9399 152.94 79.8651 152.94 64.97C152.94 50.0749 140.865 38 125.97 38C111.075 38 99 50.0749 99 64.97C99 79.8651 111.075 91.9399 125.97 91.9399ZM125.97 81.4513C135.073 81.4513 142.452 74.0722 142.452 64.9696C142.452 55.8671 135.073 48.488 125.97 48.488C116.868 48.488 109.489 55.8671 109.489 64.9696C109.489 74.0722 116.868 81.4513 125.97 81.4513Z" fill="black"/>
<path fill-rule="evenodd" clip-rule="evenodd" d="M144.589 196.824C154.932 196.824 163.318 188.438 163.318 178.094C163.318 167.751 154.932 159.365 144.589 159.365C134.245 159.365 125.859 167.751 125.859 178.094C125.859 188.438 134.245 196.824 144.589 196.824ZM144.588 184.837C148.312 184.837 151.331 181.818 151.331 178.094C151.331 174.37 148.312 171.352 144.588 171.352C140.865 171.352 137.846 174.37 137.846 178.094C137.846 181.818 140.865 184.837 144.588 184.837Z" fill="#5BFF7F"/>
<path d="M268.418 87.564L273.046 99.1072C274.801 103.484 278.96 106.426 283.672 106.623L296.097 107.141L284.554 111.77C280.177 113.525 277.235 117.683 277.039 122.395L276.52 134.821L271.892 123.278C270.137 118.9 265.978 115.959 261.266 115.762L248.84 115.244L260.384 110.615C264.761 108.86 267.702 104.702 267.899 99.9897L268.418 87.564Z" fill="#5BFF7F"/>
<path d="M19.4695 246.927L19.83 252.055C20.1607 256.759 23.2193 260.833 27.6447 262.462L32.469 264.239L27.3406 264.6C22.6362 264.93 18.5629 267.989 16.9331 272.414L15.1564 277.239L14.7959 272.11C14.4652 267.406 11.4066 263.333 6.98119 261.703L2.15693 259.926L7.28529 259.566C11.9897 259.235 16.063 256.176 17.6928 251.751L19.4695 246.927Z" fill="#5BFF7F"/>
<rect x="263.877" y="49.8691" width="23.9733" height="23.9733" transform="rotate(-29.2131 263.877 49.8691)" fill="black"/>
<rect x="109.379" y="123.119" width="19.3219" height="19.3219" transform="rotate(-29.2131 109.379 123.119)" fill="black"/>
<rect x="47.9463" y="299.922" width="23.9733" height="23.9733" transform="rotate(-29.2131 47.9463 299.922)" fill="black"/>
<rect x="52.4795" y="216.302" width="34.962" height="34.962" transform="rotate(2.51934 52.4795 216.302)" fill="black"/>
<rect x="240.378" y="197.006" width="28.6845" height="28.6845" transform="rotate(10.3192 240.378 197.006)" fill="black"/>
<rect x="175.305" y="216.711" width="27.8324" height="13.1584" transform="rotate(-13.062 175.305 216.711)" fill="black"/>
<rect x="175.551" y="81.4971" width="38.9051" height="17.7496" transform="rotate(-67.7404 175.551 81.4971)" fill="#5BFF7F"/>
<path d="M221.005 160.863C225.2 159.664 225.749 157.866 225.5 157.117C225.5 154.121 222.503 154.121 217.259 154.87C212.763 155.512 209.018 160.801 209.018 165.358C209.018 171.352 212.763 175.097 212.763 177.345C212.763 179.592 211.265 181.091 207.519 182.589C203.773 184.087 202.275 181.091 200.028 184.087C197.15 187.925 203.774 192.328 210.516 189.331C217.259 186.335 218.756 184.087 220.255 179.592C221.754 175.097 218.757 172.85 217.258 169.104C215.76 165.358 215.76 162.361 221.005 160.863Z" fill="#5BFF7F"/>
<path d="M36.1572 158.012L42.4361 190.155L11.4605 179.521L36.1572 158.012Z" fill="black"/>
<path d="M269.978 263.841L262.637 291.238L242.581 271.182L269.978 263.841Z" fill="#5BFF7F"/>
</svg>
