<svg width="87" height="24" viewBox="0 0 87 24" fill="none" xmlns="http://www.w3.org/2000/svg">
<path d="M70.5137 22.224L74.6321 6.7872H79.0097L78.1745 9.89759C78.9617 8.74559 79.8161 7.87199 80.7377 7.27679C81.6785 6.6624 82.7825 6.4032 84.0497 6.4992L82.8113 11.0784H82.5809C81.1217 11.0784 79.8545 11.52 78.7793 12.4032C77.7041 13.2864 76.8977 14.736 76.3601 16.752L74.8913 22.224H70.5137Z" fill="black"/>
<path d="M58.9817 16.032C59.0585 16.9536 59.3753 17.6928 59.9321 18.2496C60.4889 18.7872 61.3433 19.056 62.4953 19.056C63.0713 19.056 63.6281 18.96 64.1657 18.768C64.7033 18.576 65.2889 18.2592 65.9225 17.8176L67.9385 20.5248C67.2473 21.1008 66.4121 21.5904 65.4329 21.9936C64.4729 22.3776 63.3305 22.5696 62.0057 22.5696C60.8921 22.5696 59.8937 22.416 59.0105 22.1088C58.1273 21.7824 57.3785 21.3312 56.7641 20.7552C56.1497 20.16 55.6793 19.44 55.3529 18.5952C55.0265 17.7504 54.8633 16.7904 54.8633 15.7152C54.8633 14.6016 55.0745 13.4976 55.4969 12.4032C55.9385 11.2896 56.5625 10.3008 57.3689 9.43681C58.1753 8.55361 59.1353 7.84321 60.2489 7.30561C61.3817 6.76801 62.6393 6.49921 64.0217 6.49921C65.0201 6.49921 65.9129 6.65281 66.7001 6.96001C67.4873 7.26721 68.1497 7.68961 68.6873 8.22721C69.2249 8.76481 69.6281 9.39841 69.8969 10.128C70.1849 10.8576 70.3289 11.6544 70.3289 12.5184C70.3289 13.0752 70.2617 13.6512 70.1273 14.2464C69.9929 14.8416 69.8009 15.4368 69.5513 16.032H58.9817ZM59.3561 13.296H66.0665C66.1625 12.9696 66.2105 12.6336 66.2105 12.288C66.2105 11.6544 66.0089 11.1168 65.6057 10.6752C65.2217 10.2336 64.5785 10.0128 63.6761 10.0128C62.6777 10.0128 61.7945 10.32 61.0265 10.9344C60.2777 11.5296 59.7209 12.3168 59.3561 13.296Z" fill="black"/>
<path d="M38.4432 22.4832C37.1184 22.4832 36.1296 22.1952 35.4768 21.6192C34.824 21.0432 34.4976 20.3232 34.4976 19.4592C34.4976 19.1328 34.5168 18.816 34.5552 18.5088C34.6128 18.2016 34.6896 17.8752 34.7856 17.5296L36.6576 10.5312H34.8144L35.8224 6.78721H37.6656L38.7312 2.84161H43.1088L42.0432 6.78721H45.672L44.664 10.5312H41.0352L39.3072 17.0112C39.2688 17.1264 39.24 17.2512 39.2208 17.3856C39.2016 17.5008 39.192 17.6064 39.192 17.7024C39.192 18.3168 39.5856 18.624 40.3728 18.624C40.7184 18.624 41.0832 18.5856 41.4672 18.5088C41.8704 18.4128 42.2544 18.288 42.6192 18.1344L41.6112 21.8496C40.7088 22.272 39.6528 22.4832 38.4432 22.4832Z" fill="black"/>
<path d="M25.3392 22.5696C24.7632 22.5696 24.1584 22.512 23.5248 22.3968C22.8912 22.2816 22.2672 22.1088 21.6528 21.8784C21.0576 21.648 20.4816 21.36 19.9248 21.0144C19.368 20.6688 18.8592 20.256 18.3984 19.776L20.9328 17.1552C21.7392 17.9616 22.5552 18.5088 23.3808 18.7968C24.2064 19.0848 24.9648 19.2288 25.656 19.2288C26.232 19.2288 26.6832 19.1136 27.0096 18.8832C27.336 18.6528 27.4992 18.3168 27.4992 17.8752C27.4992 17.5872 27.336 17.3376 27.0096 17.1264C26.6832 16.896 26.2512 16.6656 25.7136 16.4352C25.0992 16.1856 24.5232 15.9264 23.9856 15.6576C23.448 15.3696 22.968 15.0528 22.5456 14.7072C22.1424 14.3616 21.816 13.968 21.5664 13.5264C21.336 13.0656 21.2208 12.528 21.2208 11.9136C21.2208 11.1456 21.3648 10.4352 21.6528 9.78241C21.9408 9.11041 22.344 8.53441 22.8624 8.05441C23.4 7.57441 24.0528 7.20001 24.8208 6.93121C25.5888 6.64321 26.4528 6.49921 27.4128 6.49921C28.0464 6.49921 28.6512 6.56641 29.2272 6.70081C29.8224 6.81601 30.3792 6.97921 30.8976 7.19041C31.4352 7.40161 31.9152 7.64161 32.3376 7.91041C32.7792 8.16001 33.1632 8.42881 33.4896 8.71681L31.128 11.4816C30.3792 10.8864 29.6784 10.464 29.0256 10.2144C28.3728 9.96481 27.7296 9.84001 27.096 9.84001C26.5584 9.84001 26.136 9.95521 25.8288 10.1856C25.5408 10.416 25.3968 10.7328 25.3968 11.136C25.3968 11.4432 25.5696 11.7216 25.9152 11.9712C26.28 12.2016 26.7888 12.4608 27.4416 12.7488C27.9408 12.9792 28.44 13.2192 28.9392 13.4688C29.4576 13.7184 29.9184 14.016 30.3216 14.3616C30.7248 14.7072 31.0512 15.1104 31.3008 15.5712C31.5504 16.0128 31.6752 16.5312 31.6752 17.1264C31.6752 17.9712 31.512 18.7296 31.1856 19.4016C30.8784 20.0736 30.4464 20.6496 29.8896 21.1296C29.3328 21.5904 28.6608 21.9456 27.8736 22.1952C27.1056 22.4448 26.2608 22.5696 25.3392 22.5696Z" fill="black"/>
<path d="M15.5538 5.08801L16.6194 1.20001H21.2274L20.1618 5.08801H15.5538ZM11.061 22.224L15.2082 6.78721H19.5858L15.4386 22.224H11.061Z" fill="black"/>
<path d="M1.7998 22.224L5.9758 6.61438L2.3182 7.44958L2.2606 3.67678L8.59661 1.91998H11.6206L6.17741 22.224H1.7998Z" fill="black"/>
<path d="M46.4673 22.248L50.6145 6.81116H54.3921L50.2449 22.248H46.4673Z" fill="#5BFF7F"/>
<path d="M51.1291 1.224L50.0635 5.112H54.6715L55.7371 1.224H51.1291Z" fill="#5BFF7F"/>
<g clip-path="url(#clip0_139_1260)">
<path d="M44.6636 22.248L48.8108 6.81116H53.1884L49.0412 22.248H44.6636Z" fill="#5BFF7F"/>
</g>
<defs>
<clipPath id="clip0_139_1260">
<rect width="6" height="4.2" fill="white" transform="translate(45.2637 6.64795)"/>
</clipPath>
</defs>
</svg>
