<svg width="64" height="64" viewBox="0 0 64 64" fill="none" xmlns="http://www.w3.org/2000/svg">
<circle cx="32" cy="32" r="32" fill="#F1F3F5"/>
<g clip-path="url(#clip0_143_1161)">
<path fill-rule="evenodd" clip-rule="evenodd" d="M32.0827 22.1667C29.8275 22.1667 27.9993 23.9949 27.9993 26.25C27.9993 28.5052 29.8275 30.3334 32.0827 30.3334C34.3378 30.3334 36.166 28.5052 36.166 26.25C36.166 23.9949 34.3378 22.1667 32.0827 22.1667ZM26.166 26.25C26.166 22.9824 28.815 20.3334 32.0827 20.3334C35.3504 20.3334 37.9993 22.9824 37.9993 26.25C37.9993 29.5177 35.3504 32.1667 32.0827 32.1667C28.815 32.1667 26.166 29.5177 26.166 26.25Z" fill="white"/>
<path fill-rule="evenodd" clip-rule="evenodd" d="M21.166 38.4167C21.166 36.2438 22.9098 34.5001 25.0827 34.5001H39.0827C41.2556 34.5001 42.9993 36.2438 42.9993 38.4167V42.9167H41.166V38.4167C41.166 37.2563 40.2431 36.3334 39.0827 36.3334H25.0827C23.9223 36.3334 22.9993 37.2563 22.9993 38.4167V42.9167H21.166V38.4167Z" fill="white"/>
</g>
<defs>
<clipPath id="clip0_143_1161">
<rect width="21.8333" height="22.5833" fill="white" transform="translate(21.166 20.3333)"/>
</clipPath>
</defs>
</svg>
